<?xml version="1.0" encoding="UTF-8"?>
<svg width="70px" height="71px" viewBox="0 0 70 71" version="1.1" xmlns="http://www.w3.org/2000/svg" xmlns:xlink="http://www.w3.org/1999/xlink">
    <!-- Generator: Sketch 41.2 (35397) - http://www.bohemiancoding.com/sketch -->
    <title>wordpress</title>
    <desc>Created with Sketch.</desc>
    <defs></defs>
    <g id="Page-1" stroke="none" stroke-width="1" fill="none" fill-rule="evenodd">
        <g id="wordpress">
            <g id="wordpress-big-logo" transform="translate(0.000000, 0.333333)">
                <g id="Capa_1">
                    <path d="M0,34.9389144 C0,54.2426931 15.6351357,69.8778288 34.9389144,69.8778288 C54.2426931,69.8778288 69.8778288,54.2426931 69.8778288,34.9389144 C69.8778288,15.6351357 54.2426931,0 34.9389144,0 C15.6351357,0 0,15.6351357 0,34.9389144 Z M2.69609603,34.9389144 C2.69609603,30.2687891 3.69187891,25.8256159 5.48835073,21.8077035 L20.8556159,63.9498956 C10.1061587,58.746952 2.69609603,47.7003967 2.69609603,34.9389144 Z M34.9389144,67.1643424 C31.7681628,67.1643424 28.7226514,66.733382 25.8285386,65.865762 L35.5125052,37.7514823 L45.4321921,64.9078288 C45.4991232,65.088309 45.5777453,65.2223173 45.6534447,65.3649478 C42.2994363,66.5353653 38.6920251,67.1643424 34.9389144,67.1643424 Z M61.0005428,34.3274739 C62.8436326,29.721357 63.4578497,26.0585595 63.4578497,22.7888727 C63.4578497,21.5979958 63.3821503,20.4974322 63.2453653,19.4551775 C65.7668267,24.0612944 67.1672651,29.3370146 67.1672651,34.9389144 C67.1672651,46.8269311 60.735595,57.2008142 51.1681002,62.7939457 L61.0005428,34.3274739 Z M54.0475992,24.4224008 C55.2704802,26.5536743 56.7087683,29.3371608 56.7087683,33.3086013 C56.7087683,36.0716284 55.8877662,39.562714 54.2485386,43.7407933 L51.0370146,54.4640919 L39.3790188,19.8221294 C41.3385804,19.7231942 43.0650522,19.5193319 43.0650522,19.5193319 C44.8207516,19.3154697 44.6139666,16.7590814 42.8641127,16.8581628 C42.8641127,16.8581628 37.6582463,17.2686639 34.2807098,17.2686639 C31.1070355,17.2686639 25.78762,16.8581628 25.78762,16.8581628 C24.0494572,16.7563048 23.845595,19.4116284 25.5634447,19.5193319 C25.5634447,19.5193319 27.2200626,19.7202714 28.9612944,19.8221294 L33.9808351,33.5823173 L26.9231106,54.7378079 L15.1835699,19.8221294 C17.1285177,19.7173486 18.8666806,19.5164092 18.8666806,19.5164092 C20.6106889,19.312547 20.4040501,16.7561587 18.6628184,16.8523173 C18.6628184,16.8523173 13.445261,17.2628184 10.0649478,17.2628184 C9.45935282,17.2628184 8.74313152,17.2569729 7.99475992,17.2278914 C13.753904,8.46693111 23.6794363,2.69624217 34.938476,2.69624217 C43.3326305,2.69624217 50.9754906,5.90192067 56.7083299,11.1602505 C56.5744676,11.1514823 56.4346138,11.1253236 56.2978288,11.1253236 C53.1067641,11.1253236 50.8939457,13.8883507 50.8939457,16.8524635 C50.8914614,19.516263 52.4142171,21.7640084 54.0475992,24.4224008 Z" id="WordPress_2_" fill="#0003D1"></path>
                    <path d="M12.4606597,19.6346578 L25.0217172,58.1774349 L23.5217967,63.5034191 L23.4130094,63.4743419 L8.28410623,19.6910401 L12.4606597,19.6346578 Z" id="Combined-Shape" fill="#FFCACA" transform="translate(16.652912, 41.569038) rotate(-1.000000) translate(-16.652912, -41.569038) "></path>
                    <path d="M60.5064277,20.0466715 C60.5064277,20.0466715 59.1553921,13.8532825 57.2223955,13.8532825 C55.2893988,13.8532825 53.3904212,14.9342998 53.3904212,17.4195812 C53.3904212,18.6033768 54.7414585,20.1167171 56.1526703,22.944712 C56.7210248,24.0836647 57.6476802,25.5873235 58.0731483,27.1757107 C58.4986164,28.7640979 58.9656946,30.8775184 59.3501982,31.1612325 C59.9246812,31.5851269 60.3012364,27.2846094 60.5064277,25.907202 C60.7116191,24.5297945 60.5064277,20.0466715 60.5064277,20.0466715 Z" id="Oval" fill="#FFCACA"></path>
                    <path d="M36.4269423,19.876643 L49.0817362,58.7070396 L47.5266973,63.7044077 L32.2127353,19.6996605 C33.6738429,19.7646035 35.0824447,19.8236098 36.4269423,19.876643 Z" id="Combined-Shape" fill="#FFCACA" transform="translate(40.647236, 41.702034) rotate(-1.000000) translate(-40.647236, -41.702034) "></path>
                </g>
            </g>
        </g>
    </g>
</svg>