<svg width="30" height="30" viewBox="0 0 256 256" xmlns="http://www.w3.org/2000/svg" preserveAspectRatio="xMinYMin meet">
  <path d="M255.8 87.09c-.05-.31-.1-.62-.19-.93l-.17-.53a11 11 0 0 0-.28-.8l-.25-.54a9.74 9.74 0 0 0-.37-.73c-.1-.17-.2-.34-.32-.5a11.04 11.04 0 0 0-.84-1.15 11.17 11.17 0 0 0-.54-.6l-.44-.43a9.07 9.07 0 0 0-.63-.52c-.16-.12-.32-.26-.5-.37-.06-.05-.11-.1-.18-.14l-117-78a10.99 10.99 0 0 0-12.2 0l-117 78c-.06.04-.1.1-.17.14-.18.12-.34.24-.5.37a15.52 15.52 0 0 0-.63.52 8.6 8.6 0 0 0-.44.43 10.27 10.27 0 0 0-1.39 1.75l-.3.5a9.6 9.6 0 0 0-.38.73l-.25.54c-.1.26-.2.53-.28.8l-.17.51c-.08.3-.14.61-.2.93l-.08.47c-.07.48-.1.95-.1 1.44V167c0 .48.03.96.1 1.43l.1.48c.06.3.11.62.21.93.05.17.1.35.18.53.08.28.17.56.27.8.07.18.17.35.24.53a14 14 0 0 0 .7 1.23c.14.24.3.45.47.66l.38.47c.18.21.35.42.56.6.14.14.27.31.44.41l.62.53c.17.14.35.24.49.37.06.04.1.1.17.14l116.97 78.04A10.81 10.81 0 0 0 128 256a11.06 11.06 0 0 0 6.1-1.85l117-78c.07-.04.12-.1.18-.14a13.93 13.93 0 0 0 1.12-.9c.16-.13.3-.28.45-.42a9.88 9.88 0 0 0 .92-1.07 10.53 10.53 0 0 0 1.15-1.91l.25-.53c.1-.27.2-.54.28-.8l.17-.54c.08-.3.14-.61.2-.92.02-.16.07-.32.08-.48.07-.47.1-.95.1-1.44V89c0-.49-.04-.96-.1-1.44-.02-.17-.08-.3-.11-.47h.02zM128 154.02L89.1 128l38.9-26.02L166.9 128 128 154.02zm-11-71.15l-47.7 31.9L30.82 89 117 31.55v51.32zM49.52 128L22 146.4v-36.8L49.52 128zm19.79 13.24l47.69 31.9v51.31l-86.19-57.47 38.5-25.75v.01zm69.69 31.9l47.69-31.9 38.5 25.74-86.2 57.46v-51.3zM206.47 128L234 109.6v36.81L206.47 128zm-19.78-13.23l-47.7-31.9V31.55l86.2 57.46-38.5 25.76z" fill="#212121"/>
</svg>
