<svg xmlns="http://www.w3.org/2000/svg" viewBox="0 0 498.54 141.71"><defs><style>.a{fill:#fafafa;}</style></defs><title>Invited-Logo-res</title><path class="a" d="M175.3,279.52A12.66,12.66,0,0,1,179,270.3a14.5,14.5,0,0,1,19.44,0,13.42,13.42,0,0,1,0,18.44,14.5,14.5,0,0,1-19.44,0A12.66,12.66,0,0,1,175.3,279.52Zm25.64,89.28c-1.06.19-2.62.45-4.68.79a39.77,39.77,0,0,1-6.27.5,33.72,33.72,0,0,1-5.69-.43,9.6,9.6,0,0,1-4.24-1.73,8.25,8.25,0,0,1-2.67-3.52,15.36,15.36,0,0,1-.93-5.83V300c1-.2,2.61-.46,4.68-.8a39.55,39.55,0,0,1,6.26-.5,33.72,33.72,0,0,1,5.69.43,9.81,9.81,0,0,1,4.25,1.73,8.34,8.34,0,0,1,2.66,3.53,15.34,15.34,0,0,1,.94,5.83Z" transform="translate(-151.47 -229.54)"/><path class="a" d="M266.69,324.59c0-3-.84-5.16-2.52-6.55a10.41,10.41,0,0,0-6.84-2.09,22.82,22.82,0,0,0-5.69.72,14.3,14.3,0,0,0-4.82,2.16v50a33.73,33.73,0,0,1-4.54.86,46,46,0,0,1-6.41.43,33.72,33.72,0,0,1-5.69-.43,9.6,9.6,0,0,1-4.24-1.73,8.25,8.25,0,0,1-2.67-3.52,15.36,15.36,0,0,1-.93-5.83V315.37A11.1,11.1,0,0,1,224,309a17.54,17.54,0,0,1,4.54-4.46A41.1,41.1,0,0,1,240.84,299a58.85,58.85,0,0,1,16.49-2.16q16.28,0,25.06,7.13t8.78,19.8V368.8a33.41,33.41,0,0,1-4.54.86,46,46,0,0,1-6.41.43,33.59,33.59,0,0,1-5.68-.43,9.64,9.64,0,0,1-4.25-1.73,8.23,8.23,0,0,1-2.66-3.52,15.15,15.15,0,0,1-.94-5.83Z" transform="translate(-151.47 -229.54)"/><path class="a" d="M355.54,367.07a16.11,16.11,0,0,1-5.91,2.59,35.13,35.13,0,0,1-8.78,1,29.4,29.4,0,0,1-9.72-1.44,9.49,9.49,0,0,1-5.69-4.61c-.86-1.63-1.9-3.91-3.09-6.84s-2.48-6.19-3.82-9.79-2.74-7.46-4.18-11.59-2.8-8.21-4.1-12.24-2.47-7.92-3.53-11.66-1.92-7.06-2.59-9.94a18.65,18.65,0,0,1,12.82-5,15,15,0,0,1,8.28,2.09q3.24,2.08,4.82,7.84l5.62,22q1.57,6.48,3,11.73t2.16,8.14h.72q2.73-10.65,5.76-23.62t5.47-25.48a22.56,22.56,0,0,1,5.55-2,26.29,26.29,0,0,1,6-.72,15.76,15.76,0,0,1,8.5,2.16q3.45,2.16,3.45,7.49a30,30,0,0,1-1.08,6.69q-1.08,4.39-2.73,9.94t-3.89,11.73q-2.24,6.2-4.54,12.1t-4.53,11Q357.27,363.77,355.54,367.07Z" transform="translate(-151.47 -229.54)"/><path class="a" d="M391,279.52a12.7,12.7,0,0,1,3.67-9.22,14.5,14.5,0,0,1,19.44,0,13.39,13.39,0,0,1,0,18.44,14.5,14.5,0,0,1-19.44,0A12.7,12.7,0,0,1,391,279.52ZM416.6,368.8c-1.06.19-2.62.45-4.69.79a39.55,39.55,0,0,1-6.26.5,33.72,33.72,0,0,1-5.69-.43,9.69,9.69,0,0,1-4.25-1.73,8.23,8.23,0,0,1-2.66-3.52,15.34,15.34,0,0,1-.94-5.83V300c1.06-.2,2.62-.46,4.68-.8a39.67,39.67,0,0,1,6.27-.5,33.72,33.72,0,0,1,5.69.43,9.72,9.72,0,0,1,4.24,1.73,8.28,8.28,0,0,1,2.67,3.53,15.34,15.34,0,0,1,.94,5.83Z" transform="translate(-151.47 -229.54)"/><path class="a" d="M461,344.89q0,3.75,2.37,5.33a12,12,0,0,0,6.7,1.59,28.9,28.9,0,0,0,4.46-.36,24.27,24.27,0,0,0,4-.94,17.65,17.65,0,0,1,2.24,3.53,10.79,10.79,0,0,1,.93,4.68,11.16,11.16,0,0,1-4.1,8.93q-4.11,3.45-14.47,3.45-12.67,0-19.52-5.76t-6.84-18.72V285c1.06-.29,2.57-.6,4.54-.94a37.9,37.9,0,0,1,6.26-.5c4.23,0,7.51.75,9.87,2.23s3.53,4.64,3.53,9.43v9.22h18.86a24.75,24.75,0,0,1,1.66,4,16.78,16.78,0,0,1,.79,5.26c0,3.36-.75,5.78-2.23,7.27a8.09,8.09,0,0,1-6,2.23H461Z" transform="translate(-151.47 -229.54)"/><path class="a" d="M534.53,371.25a50.61,50.61,0,0,1-15.77-2.38,35.62,35.62,0,0,1-12.67-7.13,33,33,0,0,1-8.5-11.95,42.44,42.44,0,0,1-3.09-16.85,39.47,39.47,0,0,1,3.09-16.34,31.65,31.65,0,0,1,19.66-17.71,43,43,0,0,1,13.25-2.09,40.11,40.11,0,0,1,13.89,2.3,33.38,33.38,0,0,1,10.8,6.34,28.1,28.1,0,0,1,7.06,9.65,29.53,29.53,0,0,1,2.52,12.24c0,3.26-.92,5.76-2.74,7.48a13.67,13.67,0,0,1-7.63,3.32l-35.57,5.32a12,12,0,0,0,6.48,7.13A25.36,25.36,0,0,0,536.54,353a40.44,40.44,0,0,0,11.16-1.51,35.66,35.66,0,0,0,8.57-3.53,12,12,0,0,1,3.89,4,10.3,10.3,0,0,1,1.59,5.47q0,6.48-6,9.65a32,32,0,0,1-10.37,3.31A72.53,72.53,0,0,1,534.53,371.25Zm-4-56.59a14.24,14.24,0,0,0-6,1.15,12,12,0,0,0-4.1,2.95,12.21,12.21,0,0,0-2.38,4,16.7,16.7,0,0,0-.94,4.54l24.63-4a11,11,0,0,0-3.17-5.76C536.74,315.61,534.05,314.66,530.5,314.66Z" transform="translate(-151.47 -229.54)"/><path class="a" d="M577.87,334a43.1,43.1,0,0,1,2.88-16.49,31.61,31.61,0,0,1,8-11.59,32.89,32.89,0,0,1,12-6.84,47.32,47.32,0,0,1,14.77-2.23,31.47,31.47,0,0,1,5.61.5,23,23,0,0,1,4.47,1.23V275.2a38.79,38.79,0,0,1,4.6-.94,41.88,41.88,0,0,1,6.48-.5,33.72,33.72,0,0,1,5.69.43,9.64,9.64,0,0,1,4.25,1.73,7.76,7.76,0,0,1,2.59,3.53,16.34,16.34,0,0,1,.86,5.83v68.25q0,6.78-6.33,10.81a44.18,44.18,0,0,1-10.8,4.82,56.17,56.17,0,0,1-32-.5,34.14,34.14,0,0,1-12.53-7.49,32.16,32.16,0,0,1-7.77-11.74A42.3,42.3,0,0,1,577.87,334Zm40.9-18q-7.78,0-11.95,4.47T602.64,334q0,8.93,3.89,13.47T617.76,352a13.05,13.05,0,0,0,4.68-.79,10.79,10.79,0,0,0,3.24-1.8V317.68A13.22,13.22,0,0,0,618.77,316Z" transform="translate(-151.47 -229.54)"/><path class="a" d="M152.29,244.64a2.78,2.78,0,0,0,0,3.94l2,2a2.8,2.8,0,0,0,3.94,0,43.07,43.07,0,0,1,61,0,2.79,2.79,0,0,0,3.93,0l2-2a2.78,2.78,0,0,0,0-3.94,51.43,51.43,0,0,0-72.81,0Z" transform="translate(-151.47 -229.54)"/><path class="a" d="M164.05,256.45a2.8,2.8,0,0,0,0,3.94l2,2a2.8,2.8,0,0,0,3.94,0,26.4,26.4,0,0,1,37.39,0,2.79,2.79,0,0,0,3.93,0l2-2a2.78,2.78,0,0,0,0-3.94,34.76,34.76,0,0,0-49.2,0Z" transform="translate(-151.47 -229.54)"/></svg>