<svg xmlns="http://www.w3.org/2000/svg" width="289.53" height="295.26" viewBox="0 0 389.53 395.26"><defs><style>.a{fill:#FAFAFA;}</style></defs><title>Kodiko-Logo-Single</title><path class="a" d="M127.16,368.93Q120,355.82,120,292.52v-7.23l38.66-49.7.1,0,.16-.19,81.85,82.62q28.34,28.33,28.34,37.25a7.93,7.93,0,0,1-.06,1H241.2a15.9,15.9,0,0,0-16.29,16.28v4.66H376.15v-4.66a16.26,16.26,0,0,0-16.29-16.28H333.54c-1.07-.81-2.17-1.68-3.29-2.6q-6.88-5.67-15.38-13.77L181.72,205.79h0l24.84-31.58h0l1.83-2.36,12.69-16.12-.11,0,16.56-21.29L253,147l54.47-67L256,37.45l-55.24,66.84,15.41,12.63-25.26,28.6L120,220.39V98.5q0-60.28,6.56-72.23,6.57-10.14,20.9-12.54a43.48,43.48,0,0,1,8.95-.6h23.88V0H5.37V13.13H9.55q22.08,0,25.08.6,14.31,2.39,20.89,12.54,7.17,11.94,7.16,72.23v194q0,54.81-5.82,72l-1.94,4.43q-7.16,13.15-42.38,13.14H0V395.2H177.9V382.07h-7.76Q134.91,382.07,127.16,368.93Z"/><path class="a" d="M379.06,382.1H222a10.58,10.58,0,0,0-10.47,10.77v2.39h178v-2.39A10.58,10.58,0,0,0,379.06,382.1Z"/><path class="a" d="M261.24,157.38a17.92,17.92,0,0,0,9.78,8.21,10.87,10.87,0,0,0,11.5-3l45.7-56.08a9.92,9.92,0,0,0,1-11.68,17.87,17.87,0,0,0-9.78-8.21l-6.76-2.22-55.25,66.84Z"/><path class="a" d="M179,89.5a17.83,17.83,0,0,0,9.78,8.21l6.76,2.23,55.57-66.4-3.73-6.49a17.89,17.89,0,0,0-9.79-8.21A11.88,11.88,0,0,0,226,22.19L180,77.83A9.9,9.9,0,0,0,179,89.5Z"/><polyline class="a" points="5.37 0 180.29 0 180.29 13.13"/></svg>