<svg xmlns="http://www.w3.org/2000/svg" width="181.26" height="49.11" viewBox="0 0 501.26 139.11"><title>Kodiko-Logo-Full</title><path d="M44.14,128.08q-2.49-4.56-2.48-26.53V99L55.08,81.79h0l.05-.07,28.41,28.69q9.84,9.83,9.84,12.93a1.94,1.94,0,0,1,0,.34H83.73a5.52,5.52,0,0,0-5.65,5.65V131h52.5v-1.62a5.64,5.64,0,0,0-5.65-5.65h-9.14q-.56-.42-1.14-.9c-1.6-1.32-3.37-2.91-5.34-4.79C98,106.65,75.49,83.93,63.08,71.44h0l8.63-11h0l.63-.82,4.4-5.59,0,0,5.75-7.39L87.82,51,106.73,27.8,88.88,13,69.7,36.21l5.35,4.38-8.77,9.93-24.62,26V34.2q0-20.94,2.28-25.08a10.13,10.13,0,0,1,7.25-4.36,16,16,0,0,1,3.11-.2h8.29V0H1.86V4.56H3.32q7.66,0,8.7.2a10.13,10.13,0,0,1,7.25,4.36q2.49,4.14,2.49,25.08v67.35q0,19-2,25l-.67,1.54q-2.49,4.56-14.72,4.56H0v4.56H61.76v-4.56H59.07Q46.83,132.64,44.14,128.08Z" style="fill:#FAFAFA"/><path d="M131.59,132.65H77.07a3.68,3.68,0,0,0-3.64,3.74v.83h61.8v-.83A3.68,3.68,0,0,0,131.59,132.65Z" style="fill:#FAFAFA"/><path d="M90.69,54.63a6.19,6.19,0,0,0,3.4,2.85,3.74,3.74,0,0,0,4-1L113.94,37a3.42,3.42,0,0,0,.35-4,6.17,6.17,0,0,0-3.39-2.85l-2.35-.77L89.37,52.51Z" style="fill:#FAFAFA"/><path d="M62.13,31.07a6.19,6.19,0,0,0,3.4,2.85l2.35.77,19.29-23-1.3-2.25a6.17,6.17,0,0,0-3.39-2.85,4.14,4.14,0,0,0-4,1.16L62.48,27A3.44,3.44,0,0,0,62.13,31.07Z" style="fill:#FAFAFA"/><path d="M133.85,103.14a35.08,35.08,0,0,1,2.84-14,35.93,35.93,0,0,1,7.69-11.45A36.67,36.67,0,0,1,155.8,70,35.51,35.51,0,0,1,170,67.18a39,39,0,0,1,14.58,2.66A34.6,34.6,0,0,1,196,77.18a32.67,32.67,0,0,1,7.45,11.37,39,39,0,0,1,2.67,14.59,35.26,35.26,0,0,1-2.83,14.12,35.94,35.94,0,0,1-19.12,19A35.5,35.5,0,0,1,170,139.11a38.88,38.88,0,0,1-14.58-2.66A34.4,34.4,0,0,1,144,129.11a32.82,32.82,0,0,1-7.46-11.29A38.88,38.88,0,0,1,133.85,103.14Zm15.23-5.32a60.93,60.93,0,0,0,1.29,12.26,43.23,43.23,0,0,0,4,11.37,25.84,25.84,0,0,0,6.89,8.39,16,16,0,0,0,10.2,3.3q9.24,0,14.34-6.45t5.1-16.61a68.4,68.4,0,0,0-1.21-12.5,45.64,45.64,0,0,0-3.89-11.93,26.87,26.87,0,0,0-7-9,16.06,16.06,0,0,0-10.61-3.55A17.7,17.7,0,0,0,154.34,79Q149.08,84.92,149.08,97.82Z" style="fill:#FAFAFA"/><path d="M285.16,122.82a14.44,14.44,0,0,0,.32,3.31,4.7,4.7,0,0,0,1.3,2.33,6.6,6.6,0,0,0,2.67,1.54,23.21,23.21,0,0,0,4.45.88c1.41.22,2.11.92,2.11,2.1a9.26,9.26,0,0,1-.33,2.26q-2.1,0-5.58.24t-5.92.56c-2.4.44-4.51.89-6.31,1.38a17.56,17.56,0,0,1-4,.72c-1.54,0-2.3-.81-2.3-2.42V123.47q-2.28,3.06-4.54,5.88a27.45,27.45,0,0,1-5.26,5,25.17,25.17,0,0,1-6.89,3.47,30,30,0,0,1-9.39,1.29,25.27,25.27,0,0,1-10.53-2.26,25.78,25.78,0,0,1-8.91-6.69,33.72,33.72,0,0,1-6.24-10.89,42.6,42.6,0,0,1-2.35-14.67,35.93,35.93,0,0,1,3.4-15.89,40.05,40.05,0,0,1,8.43-11.77,36.57,36.57,0,0,1,10.93-7.26,28.4,28.4,0,0,1,10.94-2.5,44.56,44.56,0,0,1,10.93,1.21,71.14,71.14,0,0,1,9.48,3.15V41.05q0-4.83-1.7-6.85c-1.14-1.34-3.6-2.18-7.37-2.5a2.13,2.13,0,0,1-2.11-2.26,9.7,9.7,0,0,1,.32-2.25c1.41,0,3.38-.09,5.92-.25s4.62-.34,6.25-.56a48.57,48.57,0,0,0,6.71-1.29,18.55,18.55,0,0,1,4.26-.81c1.53,0,2.3.81,2.3,2.42a46,46,0,0,1-.49,6.29,66.56,66.56,0,0,0-.48,8.71ZM271.55,82a32.34,32.34,0,0,0-8.91-6.61,24.29,24.29,0,0,0-11-2.42q-9.39,0-14.17,7.74t-4.78,19.83a48.45,48.45,0,0,0,1.38,11.7,32.29,32.29,0,0,0,4,9.75,21.28,21.28,0,0,0,6.49,6.62,15.52,15.52,0,0,0,8.5,2.42,12.55,12.55,0,0,0,6.48-1.94,25.38,25.38,0,0,0,5.91-4.92,26.41,26.41,0,0,0,4.38-6.77,18.29,18.29,0,0,0,1.7-7.5Z" style="fill:#FAFAFA"/><path d="M323.3,137.17c-1.85,0-3.74,0-5.64.08s-3.67.14-5.29.25-3,.21-4.21.32-2,.16-2.27.16c0-.11-.06-.48-.16-1.13a9.6,9.6,0,0,1-.17-1.45,1.77,1.77,0,0,1,1.46-1.94,32.74,32.74,0,0,0,6.81-1.93,3.84,3.84,0,0,0,2.59-3.71V84q0-4.83-1.7-6.93c-1.14-1.4-3.59-2.26-7.37-2.58a2.14,2.14,0,0,1-2.11-2.26,9.4,9.4,0,0,1,.32-2.1q2.12,0,5.92-.24c2.53-.16,4.62-.35,6.25-.56q3.76-.65,6.72-1.37a20,20,0,0,1,4.26-.73c1.52,0,2.29.81,2.29,2.42a35.28,35.28,0,0,1-.49,5.4,57.47,57.47,0,0,0-.48,8.31v44.51a3.82,3.82,0,0,0,2.51,3.71,30.81,30.81,0,0,0,7,1.93,1.74,1.74,0,0,1,1.3,1.94c0,.32,0,.81-.08,1.45a2.64,2.64,0,0,1-.24,1.13c-.33,0-1.06-.06-2.19-.16s-2.51-.22-4.13-.32-3.39-.19-5.29-.25S325.16,137.17,323.3,137.17Zm-9.47-96.92a9.4,9.4,0,0,1,2.67-6.69,8.87,8.87,0,0,1,6.72-2.83,8.45,8.45,0,0,1,6.48,2.83,9.54,9.54,0,0,1,2.59,6.69A9.11,9.11,0,0,1,329.7,47a8.82,8.82,0,0,1-6.48,2.58A9.28,9.28,0,0,1,316.5,47,9,9,0,0,1,313.83,40.25Z" style="fill:#FAFAFA"/><path d="M374.9,127.82a3.88,3.88,0,0,0,2.59,3.63,30,30,0,0,0,6.32,2,1.77,1.77,0,0,1,1.46,1.94,13.57,13.57,0,0,1-.33,2.58c-2.81-.22-5.54-.4-8.19-.56s-5.51-.25-8.57-.25-6.19.08-9.06.25-5.66.34-8.36.56a13.42,13.42,0,0,1-.32-2.58,1.74,1.74,0,0,1,1.29-1.94,34.84,34.84,0,0,0,6.48-1.85q3.07-1.22,3.08-3.79V41.05q0-5.14-1.94-7c-1.3-1.23-3.89-2-7.78-2.34a2.13,2.13,0,0,1-2.1-2.26,9.19,9.19,0,0,1,.32-2.25c1.4,0,3.35-.09,5.83-.25s4.76-.34,6.82-.56a48.57,48.57,0,0,0,6.71-1.29,18.55,18.55,0,0,1,4.26-.81,2.38,2.38,0,0,1,2,.65,2.84,2.84,0,0,1,.49,1.77,47.75,47.75,0,0,1-.49,6.37,65.42,65.42,0,0,0-.48,8.47V99.27L399.2,77.83a2.62,2.62,0,0,0,1.46-2.42A1.43,1.43,0,0,0,399.44,74c-.81-.21-1.7-.4-2.67-.56a10.14,10.14,0,0,1-2.67-.81,2,2,0,0,1-1.22-2,9.13,9.13,0,0,1,.32-1.94c.65,0,2.43.08,5.35.24s6,.25,9.23.25,6.16-.08,8.75-.25,4.27-.24,5-.24a2.48,2.48,0,0,0,.25.73,3.07,3.07,0,0,1,.24,1.21,3,3,0,0,1-.57,1.77,1.93,1.93,0,0,1-1.7.81,23,23,0,0,0-6.07,1.21,12,12,0,0,0-3.32,1.69L387.7,96.37l26.24,30.32q3.24,3.87,6.32,4.92a27.91,27.91,0,0,0,5.83,1.37c1.08,0,1.62.65,1.62,1.94a10.9,10.9,0,0,1-.16,1.45c-.11.64-.22,1.18-.33,1.61q-11-.48-22.68-.48L375.06,102h-.16Z" style="fill:#FAFAFA"/><path d="M429,103.14a35.25,35.25,0,0,1,2.83-14,36.12,36.12,0,0,1,7.7-11.45A36.56,36.56,0,0,1,451,70a35.46,35.46,0,0,1,14.17-2.82,39,39,0,0,1,14.58,2.66,34.4,34.4,0,0,1,11.42,7.34,32.53,32.53,0,0,1,7.45,11.37,38.84,38.84,0,0,1,2.68,14.59,35.1,35.1,0,0,1-2.84,14.12,35.88,35.88,0,0,1-19.11,19,35.54,35.54,0,0,1-14.18,2.82,39,39,0,0,1-14.58-2.66,34.5,34.5,0,0,1-11.42-7.34,32.66,32.66,0,0,1-7.45-11.29A38.88,38.88,0,0,1,429,103.14Zm15.22-5.32a60.24,60.24,0,0,0,1.3,12.26,42.88,42.88,0,0,0,4,11.37,25.69,25.69,0,0,0,6.88,8.39,16.05,16.05,0,0,0,10.21,3.3q9.24,0,14.34-6.45t5.1-16.61a68.44,68.44,0,0,0-1.22-12.5,45.63,45.63,0,0,0-3.88-11.93,26.87,26.87,0,0,0-7-9,16.08,16.08,0,0,0-10.61-3.55A17.69,17.69,0,0,0,449.5,79Q444.24,84.92,444.23,97.82Z" style="fill:#FAFAFA"/></svg>