<?xml version="1.0" encoding="UTF-8"?>
<svg width="70px" height="70px" viewBox="0 0 70 70" version="1.1" xmlns="http://www.w3.org/2000/svg" xmlns:xlink="http://www.w3.org/1999/xlink">
    <!-- Generator: Sketch 41.2 (35397) - http://www.bohemiancoding.com/sketch -->
    <title>drawing</title>
    <desc>Created with Sketch.</desc>
    <defs></defs>
    <g id="Page-1" stroke="none" stroke-width="1" fill="none" fill-rule="evenodd">
        <g id="drawing">
            <g id="Layer_1">
                <g id="Group">
                    <g>
                        <g>
                            <path d="M54.6245614,54.4935673 C52.7615789,56.2401559 52.7615789,59.1510916 54.6245614,61.0142105 C55.5561209,61.94577 56.7204678,62.4114815 57.8848148,62.4114815 C59.0491618,62.4114815 60.2136452,61.94577 61.1450682,61.0142105 C63.0080507,59.2676218 63.0080507,56.3566862 61.1450682,54.4935673 C59.398616,52.6305848 56.4875439,52.6305848 54.6245614,54.4935673 Z" id="Shape" fill="#0003D1"></path>
                            <path d="M69.0629825,55.8908382 L48.1039181,34.9317739 L56.3711501,26.6645419 L56.3712865,26.6644055 L61.2615984,21.7740936 L61.2617349,21.7739571 L68.364347,14.671345 C70.3438596,12.6918324 70.3438596,9.43157895 68.364347,7.45206628 L62.4259454,1.51366472 C61.4945224,0.582241715 60.2136452,0 58.8163743,0 C57.4191033,0 56.1382261,0.582241715 55.2068031,1.51366472 L48.1040546,8.61641326 L43.2136062,13.5068616 L34.9463743,21.7740936 L14.2200975,1.04795322 C12.9392203,-0.232923977 10.6105263,-0.232923977 9.32964912,1.04795322 L1.06255361,9.31518519 C-0.334717349,10.5960624 -0.334717349,12.8083626 1.06255361,14.2056335 L3.50777778,16.6508577 L3.50777778,16.6508577 L3.50777778,16.6508577 L10.1448148,23.2878947 L10.1448148,23.2878947 L10.1448148,23.2878947 L16.6653216,29.8084016 L16.6653216,29.8084016 C16.6653216,29.8084016 16.6653216,29.8084016 16.6654581,29.808538 L21.788694,34.9317739 L3.09664717,53.6238207 C2.74814815,53.7776023 2.56025341,54.0918519 2.45982456,54.4935673 L0.0146003899,68.4662768 C0.0146003899,68.9319883 0.130994152,69.281306 0.363918129,69.51423 C0.596705653,69.747154 0.82962963,69.8635478 1.17894737,69.8635478 L1.41187135,69.8635478 L14.8449123,67.380117 C14.9378363,67.4046784 15.0381287,67.4183236 15.1516569,67.4183236 C15.5009747,67.4183236 15.8502924,67.3019298 15.9666862,67.0690058 L34.9462378,48.0894542 L36.4599025,49.6031189 C36.4599025,49.6031189 36.4599025,49.6031189 36.460039,49.6032554 L36.4601754,49.6033918 L39.7202924,52.8635088 C39.7202924,52.8635088 39.7202924,52.8635088 39.7204288,52.8636452 L39.7205653,52.8637817 L55.9054386,69.048655 C56.4876803,69.6308967 57.1863158,69.8636842 57.8849513,69.8636842 C58.5835867,69.8636842 59.2822222,69.6307602 59.7479337,69.048655 L69.0631189,59.7334698 C70.1109357,58.6853801 70.1109357,56.9387914 69.0629825,55.8908382 Z M15.1516569,64.5073879 L11.0774659,60.4331969 L49.7911501,21.8311306 L53.8095322,25.8495127 L15.1516569,64.5073879 Z M48.9190838,11.0617739 L53.8677973,16.0104873 L58.8163743,20.9590643 L55.5561209,24.2193177 L45.6588304,14.3220273 L48.9190838,11.0617739 Z M22.4290643,32.3118908 L24.9325536,29.8084016 C25.3982651,29.3426901 25.3982651,28.6440546 24.9325536,28.1782066 C24.4668421,27.7123587 23.7682066,27.7124951 23.3023587,28.1782066 L20.7988694,30.6816959 L19.1105458,28.9933723 L23.1859649,24.9179532 C23.6516764,24.4522417 23.6516764,23.7536062 23.1859649,23.2877583 C22.7202534,22.8219103 22.0216179,22.8220468 21.55577,23.2877583 L17.4803509,27.3631774 L15.8501559,25.7329825 L18.2953801,23.2877583 C18.7610916,22.8220468 18.7610916,22.1234113 18.2953801,21.6575634 C17.8296686,21.1917154 17.1310331,21.1918519 16.6651852,21.6575634 L14.219961,24.1027875 L12.5897661,22.4725926 L16.6651852,18.3971735 C17.1308967,17.931462 17.1308967,17.2328265 16.6651852,16.7669786 C16.1994737,16.3011306 15.5008382,16.3012671 15.0349903,16.7669786 L10.9598441,20.8426706 L9.21325536,19.0960819 L11.6584795,16.6508577 C12.124191,16.1851462 12.124191,15.4865107 11.6584795,15.0206628 C11.192768,14.5548148 10.4941326,14.5549513 10.0282846,15.0206628 L7.58306043,17.4658869 L5.9528655,15.835692 L10.0282846,11.7602729 C10.4939961,11.2945614 10.4939961,10.5959259 10.0282846,10.130078 C9.5625731,9.66423002 8.86393762,9.66436647 8.39808967,10.130078 L4.32280702,14.2056335 L2.69261209,12.5754386 C2.22690058,12.1097271 2.22690058,11.4110916 2.69261209,10.9452437 L10.9598441,2.67814815 C11.192768,2.44522417 11.4255556,2.32883041 11.7748733,2.32883041 C12.0077973,2.32883041 12.357115,2.44522417 12.5899025,2.67814815 L33.3161793,23.4042885 L23.4188889,33.3015789 L22.4290643,32.3118908 Z M44.0286355,16.068616 L48.1028265,20.142807 L9.3891423,58.7448733 L5.37076023,54.7264912 L44.0286355,16.068616 Z M4.43920078,57.0551852 L8.25931774,60.8753021 C8.31744639,61.0083431 8.40218324,61.1345614 8.51461988,61.2469981 L12.7236257,65.4558674 L2.69274854,67.1852632 L4.43920078,57.0551852 Z M67.432924,58.1031384 L58.1177388,67.4183236 C58.001345,67.5347173 57.6520273,67.5347173 57.5354971,67.4183236 L45.4840351,55.3668616 L49.6175828,51.2333138 C50.0832943,50.7676023 50.0832943,50.0689669 49.6175828,49.6031189 C49.1518713,49.1374074 48.4532359,49.1374074 47.9873879,49.6031189 L43.8538402,53.7366667 L42.1655166,52.0483431 L44.6107407,49.6031189 C45.0764522,49.1374074 45.0764522,48.4387719 44.6107407,47.972924 C44.1450292,47.5072125 43.4463938,47.5072125 42.9805458,47.972924 L40.5353216,50.4181481 L38.9051267,48.7879532 L42.9805458,44.7125341 C43.4462573,44.2468226 43.4462573,43.5481871 42.9805458,43.0823392 C42.5148343,42.6166277 41.8161988,42.6166277 41.3503509,43.0823392 L37.2750682,47.1578947 L36.5764327,46.4592593 L46.4737232,36.5619688 L67.4327875,57.5210331 C67.5493177,57.6374269 67.5493177,57.9867446 67.432924,58.1031384 Z" id="Shape" fill="#0003D1"></path>
                            <path d="M59.5150097,59.5004094 C58.5834503,60.4319688 57.1861793,60.4319688 56.2547563,59.5004094 C55.3233333,58.5688499 55.3231969,57.1715789 56.2547563,56.2401559 C56.7204678,55.7744444 57.3027096,55.5415205 57.8849513,55.5415205 C58.467193,55.5415205 59.0492982,55.7744444 59.5151462,56.2401559 C60.4465692,57.1717154 60.4465692,58.5689864 59.5150097,59.5004094 Z" id="Path" fill="#FFCACA"></path>
                            <path d="M56.8368616,3.14385965 C57.8848148,2.09590643 59.7477973,2.09590643 60.7957505,3.14385965 L66.734152,9.08226121 C67.7821053,10.1302144 67.7821053,11.9931969 66.734152,13.0411501 L60.4464327,19.3288694 L50.5491423,9.43157895 L56.8368616,3.14385965 Z" id="Path" fill="#FFCACA"></path>
                        </g>
                    </g>
                </g>
            </g>
        </g>
    </g>
</svg>