<svg width="1684" height="2500" viewBox="0 0 256 380" xmlns="http://www.w3.org/2000/svg" preserveAspectRatio="xMidYMid">
  <path d="M255.8 364.2c0 8.5-57.2 15.5-127.8 15.5-70.7 0-128-7-128-15.5 0-8.6 67.2-15.6 128-15.6 72.2 0 127.8 7 127.8 15.6" fill="#1A4658"/>
  <path d="M248 252.1c-4 0-8.3-1.8-11.3-15.8S229 208 229 208c5 0 7.7-2.2 7.7-2.2a49.4 49.4 0 0 1-15.6-13c-4.8-6.5-17.3-16.8-17.3-16.8v-20.7c0-14 9-25 9-25-6.1 0-9 5.5-9 5.5v-29.6c0-29.2 14.7-42.3 14.7-42.3-4.5-.3-7.6 1.8-7.6 1.8 2.2-21.6 8.8-28 8.8-28-24.4-6.4-38 8-38 8-2.7-13.1 8-20.8 8-20.8a45.5 45.5 0 0 0-22.8 1c0-19.2 7.6-25.6 7.6-25.6-38 0-59.6 28.6-59.6 28.6-1.6-12.2 1.8-22.9 1.8-22.9C79.8 21.6 70 56 70 56c-2.4-5.8-2.7-19-2.7-19S52 62.5 49.4 80.2c-2.8 17.7 2.4 68.4 2.4 68.4s-2.4-3-7.6-3.7c0 0 5.5 6.1 5.5 19.8 0 0-2.1-1.8-5.8-.9 0 0 5.8 5.2 6.4 14 0 0-6.7 4.6-10.4 9.1 0 0-5.7.3-8.8 1.3 0 0 4.9 2.7 5.8 5.1 0 0-14.3 14.7-21.6 26.5 0 0 6.4-4 11-2.7 0 0-10.1 12.2-13.5 32.3 0 0 5-2.5 7-1.2 0 0-6 12.7-6.3 26.1l-6.7 4 5.1 3.7s-4 16.4-4.8 25.8c0 0 3-3 5.4-4 0 0 3.4 8 8 14a31.7 31.7 0 0 0 21 11.4l11.4-.5c-1.4 6.1-4.2 11.3-10.1 11.6l-.7 1a6.9 6.9 0 0 0-.3 0c-.1 1.8-3.8 2.1-4.7 3.4-3 3.7-5.4 9-6.9 13.5-1.1 3.4-.6 3.4-1.4 6.9-.2 1.1-1.4 2.3-1.8 3.5 3.3-1.1 12.4-1.9 17.2-2.2v4.2s.9.8 2.2 1.3h.1c.5 0 1 0 1.3.2 7.2-.6 12.2.6 20.6-.1a11 11 0 0 0 4.6-1.3c.4-1.2.4-1.2.6-2.8l.1-.9h.4a1 1 0 0 1 .3-.1h.5a.4.4 0 0 1 .3 0 49 49 0 0 1 5.4-.4c5 0 11.4.5 11.4.5.4-5.5.8-14 9.7-39l2.2-1.3s27.4 9.7 52.7-.4c2 5 8.5 21.6 9.6 32 .8 1.3.7 2.8.8 4.5l.2 4.2c.9-.1 4.2-.5 8.3-.5l5.5.3a.4.4 0 0 1 .2 0h.4l.1.1a1 1 0 0 1 .3 0l.4.1.1.9c.2 1.6.3 1.6.7 2.8l.4.2A78.7 78.7 0 0 1 208 372l1 .2 5.7.8v-6.3c3.8.2 9.3 1 11.7 1.3l2.4.5h.3l2.8.8-.5-4.6c-.2-2-1.6-8-4.3-10.5 0 0 3 1.2 3.8 1.7-2.9-3.9-4.2-9.4-13.3-13.3 0 0 1.7-.8 3.2-1a6.8 6.8 0 0 0-4.4-1.2c.5-1.5 3-5.4 5-6 0 0-1.3-.8-3.3-.1a19.3 19.3 0 0 0-2.2 1.3c-.3.2-.7 0-.7-.3-.7-2.3-1-4.7-1.4-7.1 18.2-.7 20.7-10 20.7-10 1.6 1.2 1.6 4 1.6 4 7.9-10.4 7-20.8 7-20.8 1.8.3 3.3 1.6 3.3 1.6 1-15.9-4-43-4-43 2.5 1.2 4-.3 4-.3-2.7-1.2-3-4.2-3-4.2 4 .3 4.5-3.4 4.5-3.4" fill="#EDF7FA"/>
  <path d="M73.7 367s.7-7.7-1.8-13.3c0 0 4.8.4 5.6 13l-3.8.3m-23.9-26v-.2.2m4.5 25.4v-.2.2" fill="#CDE9EE"/>
  <path d="M114.9 28.9A60.1 60.1 0 0 1 116.7 6C79.8 21.6 70 56 70 56c-2.4-5.8-2.7-19-2.7-19S52 62.5 49.4 80.2c-2.8 17.7 2.4 68.4 2.4 68.4s-2.4-3-7.6-3.7c0 0 5.5 6.1 5.5 19.8 0 0-2.1-1.8-5.8-.9 0 0 5.8 5.2 6.4 14 0 0-6.7 4.6-10.4 9.1 0 0-5.7.3-8.8 1.3 0 0 4.9 2.7 5.8 5.1 0 0-14.3 14.7-21.6 26.5 0 0 6.4-4 11-2.7 0 0-10.1 12.2-13.5 32.3 0 0 5-2.5 7-1.2 0 0-6 12.7-6.3 26.1l-6.7 4 5.1 3.7s-4 16.4-4.8 25.8c0 0 3-3 5.4-4 0 0 3.4 8 8 14a31.7 31.7 0 0 0 21 11.4l.7-.2-1.2 6.3c-.1.3-.5.5-.8.3a19.2 19.2 0 0 0-2.2-1.3c-2-.7-3.2.2-3.2.2 2 .5 4.4 4.4 5 6-1.7-.2-2.9.2-4.4 1.1 1.5.2 3.1 1 3.1 1-9 3.9-10.4 9.4-13.3 13.3l3.8-1.7c-2.7 2.5-4.1 8.5-4.3 10.5l-.4 4.6c2.4-.8 3.5-.9 5.5-1.3 3-.5 11.3-1.6 14.4-1.3l-.5 6h.2c1.6-.5 2.9-.5 4.3-.6 0-1.7 0-3.3.2-5 0-2.7.3-5.2.8-8v-.3c1.2-3.9 3.1-6 4.4-7.4l1.1-1.5a15.4 15.4 0 0 0 2.1-4 33 33 0 0 0-1.8-18.2 87 87 0 0 0 6.3 8.3l-.1-9.4s4.9 5 9.2 8.6c2.1 1.8 4.7 4.2 6.5 5.2.2 0 .3-.8.4.5l.1-.3c2.5 1.4 5 2.5 7.4 4l.8.5c1 .7 3 1.6 4.7 2.5L92 367c1.5-20.4 13.1-40 13.1-40l-.4-.1A80.4 80.4 0 0 1 59 284.1c-1-2.2 5.8 2.4 5.8 2.4A176.7 176.7 0 0 1 56 246a9.3 9.3 0 0 0 4.2 2.1 133.3 133.3 0 0 1-6.3-42.9c-1.3-77 27.2-94.7 27.2-94.7-4.9-1.8-10-1.7-10-1.7 5.6-13.5 24.3-32.4 24.3-32.4C90.5 76.7 71 82 71 82c16.2-42.4 32.7-53.7 32.7-53.7a52.5 52.5 0 0 0 2.7 21C141.7 5.6 170 7.6 170 7.6c2.1-4.3 4.5-7.3 4.5-7.3-38 0-59.6 28.6-59.6 28.6m99.8 337.9s-.3-11-2.9-16.6c0 0 6.6 4 6.6 16.7l-3.7-.1" fill="#CDE9EE"/>
  <path d="M44.4 310c4.3-42.3 5.4-124.9 5.4-124.9-9.3 18.5-16.9 52-16.9 52l1.9 7.4-4.1-1.8c-6.6 22.9-2.2 53.6-.7 62.2 4.2 3.4 9.2 4.5 14.4 5m-8.9-.8a666.6 666.6 0 0 0 4.3 20h2.4c1-4 1.2-10.4 2-18.1-3-.4-5.9-1-8.7-2" fill="#ABD8D7"/>
  <path d="M178.6 345.5a.4.4 0 0 1-.5-.2l-1 .2c6.2-4.6 6.8-9.4 6.8-9.4a37.9 37.9 0 0 1-10.8 2.8c14.6-12.6 17-36 17-36a89.7 89.7 0 0 1-21 17.7s-4.3 2.4-8.3 4.3a.5.5 0 0 0-.5.2 24 24 0 0 1-5.2 2s3.4 6.2 4.8 9.5l-.3.2s4.9 11.5 6.7 22.7l.4 4.8c0 1.6.2 2.7.2 2.7 6.4-1 15.5 0 15.5 0 0 1 .5 3.6.6 4 3.1-.4 6.2-.6 9.3-.6 0-10.8-.5-28.7-13.7-25" fill="#CDE9EE"/>
  <path d="M44 313.2C34 311.5 24.8 300 24.8 300c7.3 7.9 16.5 9 16.5 9 1.2-9-6.2-29.5-6.2-29.5a55.8 55.8 0 0 1 10.1 21.2L44 313.2" fill="#83BAC0"/>
  <path d="M67 297.4s7.9 14 14.8 20a86.4 86.4 0 0 1 17.5 21.4s3.8-8.7 5.8-11.8c0 0-22.3-6.5-38.2-29.6m103.6 27.3l3.6-4.5c2-2.4 4.2-4.7 5.9-7.4-2.9 2.2-6 4-9.3 6-9.5 6.4-16 8.2-16 8.2 2 3 5.7 11.8 5.7 11.8 1.8-3.4 5.1-8 9-12.7l1.1-1.4" fill="#ABD8D7"/>
  <path d="M63.9 89.1l-3.6.1C35.2 91 16.7 71.5 16.7 71.5S15.1 86.7 26 100s33 15.6 33 15.6c.7 3.1-.9 10-.9 10s6.5-7 8.1-20.6c1.2-9.5-1.8-16-2.3-15.9" fill="#545352"/>
  <path d="M63.9 89.1l-3.6.1C35.2 91 16.7 71.5 16.7 71.5s11.5 33.2 49.8 30.6c0 0 1-6.1-2.6-13" fill="#6E7979"/>
  <path d="M189.3 89.1l3.6.1c25.1 1.8 43.6-17.7 43.6-17.7s1.6 15.2-9.3 28.5c-11 13.3-33 15.6-33 15.6-.7 3.1.8 10 .8 10s-6.4-7-8-20.6c-1.2-9.5 1.7-16 2.3-15.9" fill="#545352"/>
  <path d="M189.3 89.1l3.6.1c25.1 1.8 43.6-17.7 43.6-17.7s-11.5 33.2-49.8 30.6c0 0-1-6.1 2.6-13" fill="#6E7979"/>
  <path d="M50.8 201.6s-18 64.8 0 106.4V201.6m179.7 102.6c-9 6.8-18.2 7.2-18.2 7.2-.4-8.9 9.3-28.3 9.3-28.3a21.1 21.1 0 0 0-5.4 4.6v-6.5l7-5.8-5.7-4.6 7.1-28.7-6.8 4.5s-2.1-41-.6-58.6c0 0-8.7-8.7-13-12.2 0 0 .8 12.6 1.8 32.8 3.8 16.2 9.9 49.6 2.4 79l.2 18.1s3.7 13 5 22.2c0 0 1.1.3 3 0l-.2-14a27.7 27.7 0 0 0 14.1-9.7m-84.4-125.6c0 6.9 4.4 12.5 9.9 12.5 5.4 0 9.9-5.6 9.9-12.5 0-7-4.5-12.6-10-12.6-5.4 0-9.8 5.6-9.8 12.6" fill="#CDE9EE"/>
  <path d="M146.4 175.2c0 6.8 4.3 12.4 9.7 12.4 5.4 0 9.8-5.6 9.8-12.4 0-6.8-4.4-12.3-9.8-12.3s-9.7 5.5-9.7 12.3" fill="#FFF"/>
  <path d="M153.5 168.9a3.8 3.8 0 0 0-.1 1c0 1.7 1.1 3 2.5 3 1.3 0 2.3-1 2.5-2.5.8 1 1.3 2.4 1.3 4 0 3.2-2.1 5.8-4.7 5.8s-4.7-2.6-4.7-5.8c0-2.6 1.4-4.8 3.2-5.5" fill="#474746"/>
  <path d="M98.6 178.6c0 6.9 4.4 12.5 9.9 12.5 5.4 0 9.9-5.6 9.9-12.5 0-7-4.5-12.6-10-12.6-5.4 0-9.8 5.6-9.8 12.6" fill="#CDE9EE"/>
  <path d="M98.9 175.2c0 6.8 4.3 12.4 9.7 12.4 5.4 0 9.8-5.6 9.8-12.4 0-6.8-4.4-12.3-9.8-12.3s-9.7 5.5-9.7 12.3" fill="#FFF"/>
  <path d="M107.9 168.9a3.8 3.8 0 0 0-.2 1c0 1.7 1.2 3 2.5 3s2.3-1 2.5-2.5c.8 1 1.3 2.4 1.3 4 0 3.2-2 5.8-4.7 5.8-2.5 0-4.6-2.6-4.6-5.8 0-2.6 1.3-4.8 3.2-5.5" fill="#474746"/>
  <path d="M181.7 188.4c-.6 1.9-2.7 2.4-8.7 3.5l-.4.1c-6 1.1-16.4 1-22.2.1a30.8 30.8 0 0 1-.7 0c-5.4-1-6-1.7-7.7-4.4a47 47 0 0 1-3-13c-.3-1.8-.4-2.7 1.9-3.7 3-1.4 16.5-3.3 22-3.5a130.2 130.2 0 0 1 19.2 1.3c.5.1 2.3 1 2.2 2.9-.1 2.5-1.7 14.2-2.6 16.7zm-58.6-13.8v.1a47 47 0 0 1-3.1 13c-1.7 2.7-2.3 3.4-7.7 4.3l-.7.1c-5.8.9-16.3 1-22.2-.1H89c-6-1.2-8.1-1.7-8.7-3.6-.9-2.5-2.5-14.2-2.6-16.7 0-2 1.7-2.8 2.2-3 .3 0 .8 0 1.4-.2 4.3-.6 13.5-1.2 17.8-1 5.5.2 19 2.1 22 3.5 2.3 1 2.2 1.9 2 3.6zm66.3-11c-4.4-.7-12-1.5-21.3-1-12 .6-22.4 2.3-28.5 3.3l-4.4.7-1.2.1c-1.4.2-2.2.4-3 .4a37 37 0 0 1-3-.4l-1.2-.1-4.4-.7c-6.1-1-16.4-2.7-28.5-3.3-9.2-.5-17 .3-21.3 1 0 0-4.7.5-8.8 2.2l.8 5.1s4.2-1 8.4-1.5c.8 7.2 2.3 16.5 2.3 16.5v.3l.3 1.4c.9 3.6 1.7 5.8 5.2 7a81.2 81.2 0 0 0 29 2.4 31 31 0 0 0 11.5-3.4c2.6-2 4-6.7 4.8-9.8l.3-1 .9-3.2c.3-1.6.7-3.2 1-3.7.1-.1.4-.5 1.5-.6a8.9 8.9 0 0 1 2.4 0c1 .1 1.4.5 1.4.6.4.5.8 2.1 1.1 3.7l1 3.3.2 1c.9 3 2.3 7.8 4.8 9.7a31 31 0 0 0 11.4 3.4 81.2 81.2 0 0 0 29.1-2.3c3.5-1.3 4.3-3.5 5.2-7.1 0-.5.2-1 .3-1.4v-.3s1.5-9.3 2.3-16.5c4.2.5 8.4 1.5 8.4 1.5l.8-5c-4-1.8-8.8-2.4-8.8-2.4z" fill="#545352"/>
  <path d="M111.5 150.6s-11-5.3-17.3 4.5c0 0-.6-9.7 8.2-10.8 9-1.1 9.1 6.3 9.1 6.3m-4.1-14.3s-10.2-4.8-14.9 4.5c0 0-1.5-8.1 5.8-10s9 5.5 9 5.5m43.6 20.2s8.6-4 13.5 3.5c0 0 .5-7.5-6.4-8.4-7-.8-7 4.9-7 4.9m6-13.5s8.7-1.4 10.2 6.5c0 0 2.8-5.7-2.2-8.7-5-3-8 2.2-8 2.2" fill="#A0D1DE"/>
  <path d="M110.8 227.4s6-4.1 9.6-4.7c0 0 .7 7.7 4.3 11.5 0 0 7.6-7 15.2-7.4 0 0 2 4.2 5.1 5.7 1.1.8 2.5 1.5 3.9 1.8 0 0 4.3-2.6 5.6-7.4 0 0 .4 10.1-6 15.7 0 0-4.8-2.4-8.3-6.2-1-1-2.1-2.2-2.7-3.2 0 0-11.2 8-11.6 12.5 0 0-8-8-10.8-14 0 0-5.4 1.7-7 2.8 0 0-4.3-7-5.2-13.5 0 0 5.3 5 7.9 6.4" fill="#B2DCE5"/>
  <path d="M131.1 207.5c-.4-.1 11.4.8 23 .4 0 0 .6-2.3 1.5-3.5 0 0-.2 3.8.9 4.5 0 0-5.8 2.3-11.7 2.3 0 0 6.4-1 8.5-2.2 0 0-11.6.7-22.2-1.5" fill="#545352"/>
</svg>
