<svg width="2500" height="2500" viewBox="0 0 256 256" xmlns="http://www.w3.org/2000/svg" preserveAspectRatio="xMinYMin meet">
  <path d="M251.2 116.6L139.4 4.8a16.5 16.5 0 0 0-23.3 0L92.9 28l29.4 29.5a19.6 19.6 0 0 1 24.8 25l28.4 28.3a19.6 19.6 0 1 1-11.8 11l-26.4-26.4v69.7a19.8 19.8 0 0 1 5.2 3.7 19.6 19.6 0 1 1-27.8 0 19.7 19.7 0 0 1 6.4-4.3V94.2a19.4 19.4 0 0 1-6.4-4.3 19.6 19.6 0 0 1-4.2-21.4l-29-29L4.8 116a16.5 16.5 0 0 0 0 23.3l111.8 111.8a16.5 16.5 0 0 0 23.3 0l111.3-111.3a16.5 16.5 0 0 0 0-23.3" fill="#DE4C36"/>
</svg>
