<svg width="2500" height="605" viewBox="0 0 512 124" xmlns="http://www.w3.org/2000/svg" preserveAspectRatio="xMidYMid">
  <path d="M188.4 0c17.8 0 36 5 50 16.5A84 84 0 0 1 256 37.1a75.8 75.8 0 0 1 37.3-32 87 87 0 0 1 60 .4A143.2 143.2 0 0 1 398 34c10.4 9.2 20 19.2 30.7 28a62.2 62.2 0 0 0 18.7 11.3 26 26 0 0 0 26.7-7 17.6 17.6 0 0 0-1-24.1c-4.3-3.7-11.6-3-14.6 2-2.7 3.8-1.2 8.7.9 12.5-5.5-4-11-9.6-11-17-1.2-8.4 5.1-15.9 12.6-18.8 14.7-5.9 33-.8 42.3 12 8.9 12.1 9.6 28 8 42.3a50.5 50.5 0 0 1-20.7 34.2c-15.9 11.3-36 14.8-55.1 14.6-18.4-.5-36.6-4.7-53.6-11.5-28.5-11.5-55.2-27.3-84.6-36.5-9.8-3.7-20.1-5.8-30.6-6.4-8.3 0-16.2-.5-24 0-9.6 1-19 3-28 6.5-30 9.3-57 25.5-86 37a139 139 0 0 1-77.7 8.6c-14.6-3-29-9.3-39-20.8A52.2 52.2 0 0 1 0 65.3c-.4-12 2.2-24.9 10.2-34.3a36.5 36.5 0 0 1 30.9-12.4 26 26 0 0 1 19.4 9.5c3.6 4.7 3.8 11.2 2.2 16.7-1.9 5-5.8 8.8-10.1 11.8 2.2-3.7 3.5-8.6.9-12.5-3.2-5.1-11-5.6-15.2-1.4A17.8 17.8 0 0 0 35.5 63a24.3 24.3 0 0 0 19 11.4c11.2 1 21-6 29.2-12.8 17.2-14.7 32.6-31.6 51.6-44A96 96 0 0 1 188.4 0z" fill="#423426"/>
</svg>
