<?xml version="1.0" encoding="UTF-8"?>
<svg width="150" height="150" viewBox="0 0 67 80" version="1.1" xmlns="http://www.w3.org/2000/svg" xmlns:xlink="http://www.w3.org/1999/xlink">
    <!-- Generator: Sketch 41.2 (35397) - http://www.bohemiancoding.com/sketch -->
    <title>idea</title>
    <desc>Created with Sketch.</desc>
    <defs>
        <polygon id="path-1" points="0.0131693472 0.195068493 0.0131693472 18.6702466 13.2687205 18.6702466 13.2687205 0.195068493 0.0131693472 0.195068493"></polygon>
    </defs>
    <g id="Page-1" stroke="none" stroke-width="1" fill="none" fill-rule="evenodd">
        <g id="idea">
            <path d="M64.7896764,31.7567123 C65.5166244,31.7567123 66.1066112,32.3456438 66.1066112,33.0717808 C66.1066112,33.7968219 65.5166244,34.3868493 64.7896764,34.3868493 L57.415281,34.3868493 C56.6865771,34.3868493 56.0983463,33.7968219 56.0983463,33.0717808 C56.0983463,32.3456438 56.6865771,31.7567123 57.415281,31.7567123 L64.7896764,31.7567123 Z" id="Fill-1" fill="#0003D1"></path>
            <path d="M61.6781987,16.5683288 C62.0416727,17.197589 61.8256954,18.0006575 61.1970785,18.3653699 L54.8123595,22.0460274 C54.6056008,22.1650411 54.3793075,22.221589 54.1538921,22.221589 C53.6993302,22.221589 53.2570596,21.9861918 53.0125487,21.5640548 C52.6490747,20.9339178 52.865052,20.1308493 53.4954248,19.7678904 L59.8801438,16.0878904 C60.5087606,15.7231781 61.3147247,15.9390685 61.6781987,16.5683288 Z" id="Fill-2" fill="#0003D1"></path>
            <path d="M61.1970785,47.7788493 C61.8256954,48.1420274 62.0416727,48.9450959 61.6781987,49.5743562 C61.4339073,49.9971507 60.9914172,50.2318904 60.5370747,50.2318904 C60.3140738,50.2318904 60.0877805,50.1762192 59.8801438,50.0572055 L53.4954248,46.3765479 C52.865052,46.0118356 52.6490747,45.2087671 53.0125487,44.5795068 C53.3762422,43.9493699 54.1819868,43.7334795 54.8123595,44.0981918 L61.1970785,47.7788493 Z" id="Fill-3" fill="#0003D1"></path>
            <path d="M53.5957313,32.8414247 C53.5957313,37.3551781 52.1561022,41.6385753 49.4304863,45.225863 C44.8341646,51.2806575 42.4298808,58.3559452 42.4298808,65.6848219 L42.4298808,73.6179726 C42.4298808,77.1368767 39.562036,79.9997808 36.0381381,79.9997808 L30.0948117,79.9997808 C26.5702554,79.9997808 23.7030691,77.1368767 23.7030691,73.6179726 L23.7030691,65.6848219 C23.7030691,58.4346301 21.2149404,51.1804932 16.6982933,45.2574247 C13.9169272,41.6103014 12.4689574,37.2515068 12.5108798,32.652274 C12.55807,27.2865753 14.6886509,22.2233425 18.5055667,18.390137 C22.322702,14.5589041 27.3856575,12.4056986 32.7561173,12.3303014 C38.2982176,12.249863 43.5290823,14.348274 47.4748382,18.2336438 C51.4221306,22.1196712 53.5957313,27.3080548 53.5957313,32.8414247 Z M47.3323898,43.6359452 C49.7066036,40.5091507 50.9618619,36.7763288 50.9618619,32.8414247 C50.9618619,28.0177534 49.0670123,23.4939178 45.6254229,20.1067397 C42.1855894,16.7189041 37.6311902,14.8953425 32.7929915,14.9604384 C23.1484201,15.0947945 15.2305695,23.0435068 15.1447493,32.6752877 C15.1078751,36.6847123 16.3708155,40.4843836 18.7955118,43.6659726 C23.5555724,49.9072877 26.2230237,57.5331507 26.3336462,65.1907945 L39.7712091,65.1907945 C39.8785393,57.4595068 42.4873869,50.016 47.3323898,43.6359452 Z M39.7960114,73.6179726 L39.7960114,73.2017534 L26.3369385,71.6624658 L26.3369385,72.7267945 L39.7360908,74.2592877 C39.772965,74.050411 39.7960114,73.8371507 39.7960114,73.6179726 Z M39.7960114,70.5545205 L39.7960114,67.8209315 L26.3369385,67.8209315 L26.3369385,69.0152329 L39.7960114,70.5545205 Z M38.1421608,76.7250411 L26.8042308,75.4270685 C27.4447001,76.5845479 28.6793264,77.3696438 30.0948117,77.3696438 L36.0381381,77.3696438 C36.817544,77.3696438 37.5411996,77.1316164 38.1421608,76.7250411 Z" id="Fill-4" fill="#0003D1"></path>
            <path d="M49.5797389,4.4870137 C50.2090142,4.8499726 50.4241135,5.6530411 50.0606395,6.28230137 L46.3756367,12.6581918 C46.1313453,13.0803288 45.6888553,13.315726 45.2345128,13.315726 C45.0106339,13.315726 44.7843406,13.2591781 44.5778013,13.1401644 C43.9467701,12.7772055 43.7305733,11.9723836 44.0942668,11.3431233 L47.7801476,4.96723288 C48.1436216,4.3379726 48.9495856,4.12230137 49.5797389,4.4870137 Z" id="Fill-5" fill="#0003D1"></path>
            <path d="M48.8552053,32.8414247 C48.8552053,33.3345753 48.8319395,33.8303562 48.7882611,34.3164932 C48.7248288,34.9998904 48.1504257,35.5118904 47.4781306,35.5118904 C47.437964,35.5118904 47.3975781,35.510137 47.3556556,35.5066301 C46.632,35.4397808 46.0977635,34.8002192 46.1647077,34.0760548 C46.2015818,33.6692603 46.2213359,33.254137 46.2213359,32.8414247 C46.2213359,25.5914521 40.3140057,19.6924932 33.0537446,19.6924932 C32.3265771,19.6924932 31.7368098,19.1033425 31.7368098,18.3774247 C31.7368098,17.6512877 32.3265771,17.0623562 33.0537446,17.0623562 C41.7663652,17.0623562 48.8552053,24.1411507 48.8552053,32.8414247 Z" id="Fill-6" fill="#0003D1"></path>
            <path d="M46.8901192,37.3448767 C47.5589026,37.6315616 47.8657483,38.4056986 47.5786566,39.0735342 C47.0777824,40.2360548 46.429631,41.3422466 45.653737,42.3644932 C45.3956178,42.7061918 45.0020738,42.8850411 44.6034816,42.8850411 C44.3264863,42.8850411 44.0470766,42.7978082 43.8087114,42.6187397 C43.2290407,42.1788493 43.1166623,41.3543014 43.5556405,40.7754521 C44.2031334,39.9219726 44.7424182,38.9998904 45.1607644,38.0315616 C45.4478562,37.3654795 46.2230918,37.0570959 46.8901192,37.3448767 Z" id="Fill-7" fill="#0003D1"></path>
            <path d="M39.7960114,73.2017534 L39.7960114,73.6179726 C39.7960114,73.8371507 39.772965,74.050411 39.7360908,74.2592877 L26.3369385,72.7267945 L26.3369385,71.6624658 L39.7960114,73.2017534 Z" id="Fill-8" fill="#FF9595" opacity="0.503453351"></path>
            <polygon id="Fill-9" fill="#FF9595" opacity="0.503453351" points="39.7960114 67.8209315 39.7960114 70.5545205 26.3369385 69.0152329 26.3369385 67.8209315"></polygon>
            <path d="M26.8042308,75.4270685 L38.1421608,76.7250411 C37.5411996,77.1316164 36.817544,77.3696438 36.0381381,77.3696438 L30.0948117,77.3696438 C28.6793264,77.3696438 27.4447001,76.5845479 26.8042308,75.4270685 Z" id="Fill-10" fill="#FF9595" opacity="0.503453351"></path>
            <path d="M34.3706793,1.37994521 L34.3706793,8.74476712 C34.3706793,9.46980822 33.7798146,10.0598356 33.0537446,10.0598356 C32.3248212,10.0598356 31.7368098,9.46980822 31.7368098,8.74476712 L31.7368098,1.37994521 C31.7368098,0.653808219 32.3248212,0.0648767123 33.0537446,0.0648767123 C33.7798146,0.0648767123 34.3706793,0.653808219 34.3706793,1.37994521 Z" id="Fill-11" fill="#0003D1"></path>
            <path d="M29.0324844,53.0691507 C29.2589972,53.76 28.8834513,54.5014795 28.1914021,54.7292055 C28.0559773,54.7736986 27.9170407,54.7960548 27.77986,54.7960548 C27.2269669,54.7960548 26.7107285,54.4440548 26.5298694,53.8919452 C25.1624522,49.737863 23.1236178,45.8680548 20.4708723,42.3910137 C19.9100776,41.6565479 19.4135932,40.8723288 18.993491,40.0622466 C18.660087,39.4167671 18.9129385,38.6231233 19.559334,38.2890959 C20.205071,37.9561644 21.000719,38.2086575 21.334123,38.8543562 C21.6839886,39.5289863 22.0981646,40.1830137 22.5669934,40.7969315 C25.3973056,44.5076164 27.5715648,48.6367123 29.0324844,53.0691507 Z" id="Fill-12" fill="#0003D1"></path>
            <path d="M22.0105885,11.3431233 C22.3742819,11.9723836 22.1580851,12.7772055 21.5296878,13.1401644 C21.3222706,13.2591781 21.0957578,13.315726 20.8712204,13.315726 C20.416,13.315726 19.9735099,13.0803288 19.7292185,12.6581918 L16.0442157,6.28230137 C15.6805222,5.6530411 15.896719,4.8499726 16.5268723,4.4870137 C17.1552696,4.12230137 17.9612337,4.3379726 18.3247077,4.96723288 L22.0105885,11.3431233 Z" id="Fill-13" fill="#0003D1"></path>
            <path d="M20.0301381,34.8190685 C20.1363709,35.538411 19.6416424,36.2077808 18.9214986,36.3149589 C18.8563103,36.3243836 18.7902441,36.3294247 18.7268117,36.3294247 C18.0839281,36.3294247 17.5222554,35.8610411 17.4254607,35.2087671 C17.3027663,34.3850959 17.2428458,33.5375342 17.2522838,32.694137 C17.2573321,31.9682192 17.8574153,31.385863 18.579315,31.392 C19.3082384,31.3987945 19.8912015,31.9929863 19.8861533,32.7189041 C19.8782517,33.4253151 19.9280757,34.1326027 20.0301381,34.8190685 Z" id="Fill-14" fill="#0003D1"></path>
            <path d="M12.6111864,19.7678904 C13.2395837,20.1308493 13.4557805,20.9339178 13.092087,21.5640548 C12.8477956,21.9861918 12.4055251,22.221589 11.9509631,22.221589 C11.7281816,22.221589 11.5007909,22.1650411 11.2942517,22.0460274 L4.90931315,18.3653699 C4.27915989,18.0006575 4.06318259,17.197589 4.42665658,16.5683288 C4.79013056,15.9390685 5.59609461,15.7231781 6.22624787,16.0878904 L12.6111864,19.7678904 Z" id="Fill-15" fill="#0003D1"></path>
            <g id="Group-19" transform="translate(0.000000, 31.561644)">
                <mask id="mask-2" fill="white">
                    <use xlink:href="#path-1"></use>
                </mask>
                <g id="Clip-17"></g>
                <path d="M13.092087,13.017863 C13.4557805,13.6471233 13.2395837,14.4501918 12.6111864,14.8149041 L6.22624787,18.4955616 C6.01970861,18.6145753 5.79253737,18.6702466 5.56778051,18.6702466 C5.11343803,18.6702466 4.67094797,18.4355068 4.42665658,18.0127123 C4.06318259,17.3834521 4.27915989,16.5803836 4.90931315,16.2172055 L11.2942517,12.5365479 C11.922649,12.1718356 12.7286131,12.387726 13.092087,13.017863 Z" id="Fill-16" fill="#0003D1" mask="url(#mask-2)"></path>
                <path d="M8.69220814,0.195068493 C9.41827815,0.195068493 10.0091429,0.784 10.0091429,1.51013699 C10.0091429,2.23517808 9.41827815,2.82520548 8.69220814,2.82520548 L1.31693472,2.82520548 C0.588230842,2.82520548 0,2.23517808 0,1.51013699 C0,0.784 0.588230842,0.195068493 1.31693472,0.195068493 L8.69220814,0.195068493 Z" id="Fill-18" fill="#0003D1" mask="url(#mask-2)"></path>
            </g>
        </g>
    </g>
</svg>