<svg width="150" height="150" viewBox="0 0 512 116" xmlns="http://www.w3.org/2000/svg">
  <g fill="none" fill-rule="evenodd">
    <path d="M489.7 8.6l21.4.2-43 58.3c-1 1.5-2.7 3-3.5 4.9-2 4.8-4.2 15.3-4.2 15.3h-19.6s3-10.9 3-16.7c-.2-5-2.8-10.2-4.2-15.3C438 50.1 436 40 436 40h20.2l2.7 11.1 30.7-42.5" fill="#1A1918"/>
    <path d="M449.2 20c4 2.4 6.3 15.6 6.3 15.6s-20.6.3-31.9.3h-9.7L402 87.3h-18s11.2-55.9 13.9-66c.8-3.3 5.9-2.7 14.4-2.7h13.5c8.8 0 19-1.2 23.4 1.4M365 45s.5-3.2-2-7c-2-3.3-4-4-9.6-4.2-15.7-.5-15.4 11-15.4 11l27 .3zm17-13.3c2.3 8.3-2.1 27.8-2.1 27.8s-22.9-.3-35.4 0c-4 .2-8.6-.4-9.8 1.4-1.6 2.6.6 6.5 2.5 8.1 2.2 2 6.4 2.2 8 2.4 10.1 1.2 31.4.3 31.4.3L373 88s-30 1.5-45.1-2c-3-.8-5.8-2.2-7.7-4.2l-1.4-2c-.4-.5-1.5-2.2-2-3.6-3.5-9.2.4-26.7 4.1-36.1l1.6-3.7c.7-1.4 1.3-3 2-4 .3-.6.8-1 1.2-1.5l1.5-2c1.4-1.5 3-2.7 4.9-4.1a46 46 0 0 1 31.2-7c5.2.6 13 2.4 16.7 7.7 1 1.4 1.5 4.2 2 6.2zm-82.9-13.2l17.5-.1S307 64.7 302 87.3h-20c-14.1 0-26.7 1.7-32-8.4-5.2-9.8-.2-25.8 2-36.8l5.2-23.5 18.1-.2s-5.1 24.6-7.2 37c-.8 4.3-2.4 8.5-.7 11.7 1.5 3.1 3.7 3.3 10.4 3.5h9l12.5-52.1m-82 33.3c1.9-6.5 4.6-13.5 4.2-19.4-.4-6.3-5.6-12-9-13.2a23.1 23.1 0 0 0-23.6 5.5c-5 5.4-6.6 11.6-8.4 20.2-1.3 6.4-2.3 13 0 18 4.2 8.8 17.2 7 31.3 7 2-5.6 3.8-11.9 5.5-18zm24.4-25.7c2 14.6-5.7 30.6-11 44.6 5.4.5 10.1 0 10.5.3.3.6-3.7 16.7-5 16.7-4.3.2-18.5.3-24.4.3-19.3 0-37.4 1.2-46.6-8.4a30.3 30.3 0 0 1-7-15.3c-1-7.8.4-16.4 2.2-23.6a71.5 71.5 0 0 1 7-18C175.2 8.5 189.3-2 213 .4a44 44 0 0 1 15.3 4.9A30.2 30.2 0 0 1 241.6 26zm-85.4-7.5c-1.2 5.3-2.3 11.3-3.6 16.6h-19.4c1.5-5.9 2.6-11.6 4.1-16.7h18.9M132.5 40h18.7a930.3 930.3 0 0 1-11 50.7c-2.5 9.6-4 16.5-10.5 21.6-.6.4-1 .2-1.4.7a26.5 26.5 0 0 1-9.7 2.8c-5 .5-10.6 0-16.6 0l4.8-18.1c14.8 1.8 15.2-12.2 18-25.7 1.7-7.8 6.7-28.8 7.7-32" fill="#1A1918"/>
    <g fill="#21609B">
      <path d="M88.7 75.5l-.4 1A39.3 39.3 0 0 1 52 98.4 50.8 50.8 0 0 1 6.1 70.6C-1 56.7-2.3 37.4 12.6 23c.2 0-1.8 3.1-1.6 3.1l-.4 1.4C-.1 61 32.9 89.9 65.1 86.5a42 42 0 0 0 23.6-11"/>
      <path d="M69.3 61.6c8 0 16.5-3.8 21.5-9-4.4 11-17 18.2-34 16a36.7 36.7 0 0 1-29.2-30.7c-1-10.4 2.6-16.6 8.6-24.2a23 23 0 0 0-3 9c-2.4 22.5 18 38.7 36 38.9"/>
      <path d="M90 33.5a25.3 25.3 0 0 1-11.7 9 22.3 22.3 0 0 1-27-14.6c-1.7-5.6-1-14.1 4-18.5a23 23 0 0 0-1 12.2 27 27 0 0 0 3.4 7.3c2.6 3.8 4.3 4.7 7.7 6.7 1.5 1 3.1 1.7 3.8 1.9 3.2 1 10 3.4 20.8-4"/>
    </g>
  </g>
</svg>
