<svg xmlns="http://www.w3.org/2000/svg" width="2500" height="1713" viewBox="0 0 84.1 57.6">
  <path fill="#fb503b" d="M83.8 26.9L74.2 15c-1.4-1.6-2-1.3-2.9-1.2l-11.7 1.9c-1.1.2-1.8.6-1.1 1.6l8.4 12-25.5 6.1L21.2 1.5c-.8-1.2-1-1.6-2.8-1.5L1.5 1.3c-1 .1-2.1.5-1.1 2.9L17.8 42c.4 1 1.6 2.6 4.3 2l17.7-4.6c2.8 5 8.4 15.2 9.5 16.7 1.4 2 2.4 1.6 4.5 1 1.7-.5 26.2-9.3 27.3-9.8 1.1-.5 1.8-.8 1-1.9l-10.4-14 11.5-3.1c1-.3 1.2-.8.6-1.4zm-46.3 9.5l-15.3 3.7c-.8.2-.8.1-.8-.2L4.1 4.4c-.2-.4-.2-.8 0-.8L18 2.4c.5 0 .4.1.6.4l19 32.8c.4.5.2.7-.1.8zm40.2 7.5c.2.4.5.6-.3.8l-24.6 8.4c-.5.2-.8.3-1.4-.6l-8.2-14L68.1 32c.6-.2.8-.3 1.2.3l8.4 11.6zm1.6-17.6l-9.7 2.4-7.5-10.2c-.2-.3-.4-.6.1-.7l9.4-1.7c.4-.1.7-.2 1.2.5l7.2 9.1c.3.3-.1.5-.7.6z"/>
</svg>
