<?xml version="1.0" encoding="UTF-8"?>
<svg width="70px" height="70px" viewBox="0 0 70 70" version="1.1" xmlns="http://www.w3.org/2000/svg" xmlns:xlink="http://www.w3.org/1999/xlink">
    <!-- Generator: Sketch 41.2 (35397) - http://www.bohemiancoding.com/sketch -->
    <title>search-1</title>
    <desc>Created with Sketch.</desc>
    <defs>
        <polygon id="path-1" points="1.24416643e-20 0.1995 1.24416643e-20 69.9997705 69.7982623 69.9997705 69.7982623 0.1995 0 0.1995"></polygon>
    </defs>
    <g id="Page-1" stroke="none" stroke-width="1" fill="none" fill-rule="evenodd">
        <g id="search-1">
            <g id="Group-3">
                <mask id="mask-2" fill="white">
                    <use xlink:href="#path-1"></use>
                </mask>
                <g id="Clip-2"></g>
                <path d="M68.1281311,60.242918 C69.2423934,61.3574098 69.7982623,62.8214426 69.7982623,64.2861639 C69.7982623,65.7492787 69.2423934,67.2123934 68.1281311,68.3278033 C67.0127213,69.4420656 65.548,69.9997705 64.0848852,69.9997705 C62.6217705,69.9997705 61.1577377,69.4420656 60.0432459,68.3278033 L43.3779672,51.6616066 C43.1188525,51.4040984 42.9735738,51.0536393 42.9735738,50.6878033 C42.9735738,50.3231148 43.1188525,49.9724262 43.3779672,49.7151475 L44.044,49.0491148 L42.4078361,47.4129508 C37.6914426,51.0499672 32.0118033,52.8690492 26.3351475,52.8690492 C19.5880656,52.8690492 12.8398361,50.302459 7.70459016,45.165377 C-2.56842623,34.8921311 -2.56842623,18.1765902 7.70459016,7.9042623 C17.976918,-2.3687541 34.692459,-2.3687541 44.9657049,7.9042623 C54.4230492,17.3634426 55.172623,32.2851475 47.2132787,42.6093443 L48.8476066,44.2436721 L49.5136393,43.5776393 C50.0516066,43.0387541 50.9239672,43.0387541 51.4619344,43.5776393 L68.1281311,60.242918 Z M66.1798361,66.3813443 C67.3347213,65.2248525 67.3347213,63.3467869 66.1798361,62.1909836 L50.4890492,46.4983607 L46.2986885,50.6887213 L61.9897049,66.3813443 C63.1443607,67.5362295 65.0251803,67.5362295 66.1798361,66.3813443 Z M49.9288197,26.5348197 C49.9288197,20.2332131 47.4742295,14.3082295 43.0176393,9.85255738 C38.5619672,5.39596721 32.6367541,2.94114754 26.3351475,2.94114754 C20.0317049,2.94114754 14.1076393,5.39596721 9.65104918,9.85255738 C5.19537705,14.3082295 2.74147541,20.2332131 2.74147541,26.5348197 C2.74147541,32.8364262 5.19537705,38.7616393 9.65104918,43.2173115 C14.1076393,47.6739016 20.0317049,50.1284918 26.3351475,50.1284918 C32.6367541,50.1284918 38.5619672,47.6739016 43.0176393,43.2173115 C47.4742295,38.7616393 49.9288197,32.8364262 49.9288197,26.5348197 Z M45.9922951,47.1008197 L46.9011475,46.1919672 L45.4139344,44.7045246 C45.2668197,44.8605902 45.1162623,45.0129836 44.9657049,45.165377 C44.8133115,45.3177705 44.659082,45.4664918 44.5048525,45.6136066 L45.9922951,47.1008197 Z" id="Fill-1" fill="#0003D1" mask="url(#mask-2)"></path>
            </g>
            <path d="M66.1798361,62.1909836 C67.3347213,63.3467869 67.3347213,65.2248525 66.1798361,66.3813443 C65.0251803,67.5362295 63.1443607,67.5362295 61.9897049,66.3813443 L46.2986885,50.6887213 L50.4890492,46.4983607 L66.1798361,62.1909836 Z" id="Fill-4" fill="#FFCACA"></path>
            <path d="M43.0176393,9.85255738 C47.4742295,14.3082295 49.9288197,20.2332131 49.9288197,26.5348197 C49.9288197,32.8364262 47.4742295,38.7616393 43.0176393,43.2173115 C38.5619672,47.6739016 32.6367541,50.1284918 26.3351475,50.1284918 C20.0317049,50.1284918 14.1076393,47.6739016 9.65104918,43.2173115 C5.19537705,38.7616393 2.74147541,32.8364262 2.74147541,26.5348197 C2.74147541,20.2332131 5.19537705,14.3082295 9.65104918,9.85255738 C14.1076393,5.39596721 20.0317049,2.94114754 26.3351475,2.94114754 C32.6367541,2.94114754 38.5619672,5.39596721 43.0176393,9.85255738 Z M47.0241639,26.5348197 C47.0241639,21.0078033 44.8706885,15.8142623 40.962623,11.9055082 C37.0557049,7.99767213 31.8594098,5.84603279 26.3351475,5.84603279 C20.8081311,5.84603279 15.6127541,7.99767213 11.7058361,11.9055082 C7.798,15.8142623 5.64636066,21.0078033 5.64636066,26.5348197 C5.64636066,32.060918 7.798,37.255377 11.7058361,41.1641311 C15.6127541,45.0721967 20.8081311,47.2238361 26.3351475,47.2238361 C31.8594098,47.2238361 37.0557049,45.0721967 40.962623,41.1641311 C44.8706885,37.255377 47.0241639,32.0618361 47.0241639,26.5348197 Z" id="Fill-5" fill="#FFCACA"></path>
            <path d="M46.9011475,46.1919672 L45.9922951,47.1008197 L44.5048525,45.6136066 C44.659082,45.4664918 44.8133115,45.3177705 44.9657049,45.165377 C45.1162623,45.0129836 45.2668197,44.8605902 45.4139344,44.7045246 L46.9011475,46.1919672 Z" id="Fill-6" fill="#FFCACA"></path>
            <path d="M40.962623,11.9055082 C44.8706885,15.8142623 47.0241639,21.0078033 47.0241639,26.5348197 C47.0241639,32.060918 44.8706885,37.255377 40.962623,41.1641311 C37.0557049,45.0721967 31.8594098,47.2238361 26.3351475,47.2238361 C20.8081311,47.2238361 15.6127541,45.0721967 11.7058361,41.1641311 C7.798,37.255377 5.64636066,32.060918 5.64636066,26.5348197 C5.64636066,21.0078033 7.798,15.8142623 11.7058361,11.9055082 C15.6127541,7.99767213 20.8081311,5.84603279 26.3351475,5.84603279 C31.8594098,5.84603279 37.0557049,7.99767213 40.962623,11.9055082 Z M39.0173115,39.2169836 C46.0092787,32.2231803 46.0092787,20.846459 39.0173115,13.8535738 C35.6293115,10.4655738 31.1252131,8.60013115 26.3351475,8.60013115 C21.545082,8.60013115 17.0409836,10.4655738 13.6539016,13.8535738 C6.66032787,20.846459 6.66032787,32.2231803 13.6539016,39.2169836 C17.0409836,42.6040656 21.545082,44.4697377 26.3351475,44.4697377 C31.1252131,44.4697377 35.6293115,42.6040656 39.0173115,39.2169836 Z" id="Fill-7" fill="#0003D1"></path>
            <path d="M37.7423934,15.1275738 C38.2803607,15.665541 38.2803607,16.5360656 37.7423934,17.0738033 C37.4724918,17.3437049 37.1220328,17.4772787 36.7697377,17.4772787 C36.4174426,17.4772787 36.0651475,17.3437049 35.7943279,17.0738033 C35.0348852,16.3136721 34.1877705,15.6467213 33.2777705,15.0942951 C32.6278033,14.7 32.4217049,13.8508197 32.816918,13.2008525 C33.2114426,12.5527213 34.0594754,12.3457049 34.7094426,12.7402295 C35.8060328,13.4090164 36.8261967,14.211377 37.7423934,15.1275738 Z" id="Fill-8" fill="#0003D1"></path>
            <path d="M37.7423934,35.9958361 C38.2803607,36.5335738 38.2803607,37.4040984 37.7423934,37.9420656 C34.6853443,40.9993443 30.6186885,42.6703934 26.361082,42.6703934 C25.718459,42.6703934 25.0719344,42.6318361 24.4238033,42.5547213 C23.6689508,42.4659016 23.1291475,41.7819672 23.2198033,41.0252787 C23.3077049,40.2704262 23.9925574,39.730623 24.7492459,39.8203607 C28.8507869,40.3071475 32.8770492,38.9140328 35.7943279,35.9958361 C36.3322951,35.4578689 37.2044262,35.4578689 37.7423934,35.9958361 Z" id="Fill-9" fill="#0003D1"></path>
            <path d="M28.8282951,10.5938689 C29.581541,10.711377 30.0951803,11.4150492 29.9776721,12.167377 C29.8601639,12.9185574 29.1574098,13.4321967 28.4043934,13.314918 C24.1942951,12.6594426 19.8839016,14.0642623 16.8741311,17.0738033 C16.6060656,17.3437049 16.2537705,17.4772787 15.9005574,17.4772787 C15.5482623,17.4772787 15.1959672,17.3437049 14.9260656,17.0738033 C14.3880984,16.5360656 14.3880984,15.665541 14.9260656,15.1275738 C18.5561967,11.4976721 23.7513443,9.80504918 28.8282951,10.5938689 Z" id="Fill-10" fill="#0003D1"></path>
            <path d="M19.2660656,37.8982295 C19.9107541,38.3007869 20.1069836,39.1506557 19.7053443,39.7951148 C19.444623,40.2139672 18.9945574,40.4434754 18.535541,40.4434754 C18.2881311,40.4434754 18.0342951,40.3771475 17.808459,40.2353115 C16.7692459,39.5871803 15.8002623,38.8162623 14.9260656,37.9420656 C14.3880984,37.4040984 14.3880984,36.5335738 14.9260656,35.9958361 C15.4640328,35.4578689 16.3363934,35.4578689 16.8741311,35.9958361 C17.5996066,36.721082 18.4038033,37.3602623 19.2660656,37.8982295 Z" id="Fill-11" fill="#0003D1"></path>
        </g>
    </g>
</svg>