<svg width="2500" height="2263" viewBox="0 0 95 86" xmlns="http://www.w3.org/2000/svg" xmlns:xlink="http://www.w3.org/1999/xlink">
  <use xlink:href="#a" transform="translate(.2 30.9)" fill="#EA6C00"/>
  <use xlink:href="#b" transform="matrix(-1 0 0 1 94.6 30.9)" fill="#EA6C00"/>
  <use xlink:href="#c" transform="translate(19.3 30.9)" fill="#FDAD00"/>
  <use xlink:href="#d" transform="translate(19.3 .4)" fill="#FDD231"/>
  <use xlink:href="#e" transform="matrix(-1 0 0 1 75.5 .4)" fill="#FDD231"/>
  <use xlink:href="#f" transform="matrix(-1 0 0 1 94.6 3.2)" fill="#FDAD00"/>
  <use xlink:href="#g" transform="translate(.2 3.2)" fill="#FDAD00"/>
  <use xlink:href="#h" transform="translate(19.3 .4)" fill="#FEEEB7"/>
  <defs>
    <path id="a" fill-rule="evenodd" d="M19.1 0l28.1 55L0 0h19.1z"/>
    <path id="b" fill-rule="evenodd" d="M19.1 0l28.1 55L0 0h19.1z"/>
    <path id="c" fill-rule="evenodd" d="M0 0h56.2L28.1 55 0 0z"/>
    <path id="d" fill-rule="evenodd" d="M28.1 0L1.5 2.8 0 30.5 28.1 0z"/>
    <path id="e" fill-rule="evenodd" d="M28.1 0L1.5 2.8 0 30.5 28.1 0z"/>
    <path id="f" fill-rule="evenodd" d="M0 27.7L20.6 0l-1.5 27.7H0z"/>
    <path id="g" fill-rule="evenodd" d="M0 27.7L20.6 0l-1.5 27.7H0z"/>
    <path id="h" fill-rule="evenodd" d="M28.1 0L0 30.5h56.2L28.1 0z"/>
  </defs>
</svg>
