<svg width="150" height="150" viewBox="0 0 256 255" xmlns="http://www.w3.org/2000/svg" preserveAspectRatio="xMinYMin meet">
  <path d="M18.1 127.5c0 43.3 25.2 80.7 61.7 98.4L27.6 83a109 109 0 0 0-9.5 44.6zm183.2-5.5c0-13.5-4.8-22.9-9-30.2-5.5-9-10.7-16.6-10.7-25.6 0-10 7.6-19.5 18.4-19.5l1.4.1A109.3 109.3 0 0 0 36 67.4l7 .2c11.5 0 29.2-1.4 29.2-1.4 5.9-.4 6.6 8.3.7 9 0 0-6 .7-12.5 1l39.8 118.5 24-71.8-17-46.7c-6-.3-11.6-1-11.6-1-5.8-.4-5.2-9.4.7-9 0 0 18.1 1.4 28.8 1.4a477 477 0 0 0 29.2-1.4c5.9-.4 6.6 8.3.7 9 0 0-6 .7-12.5 1L182 193.8l11-36.5c4.6-15 8.2-26 8.2-35.3zm-71.9 15l-32.8 95.4a109.4 109.4 0 0 0 30.9 4.5c12.7 0 25-2.2 36.3-6.2a9.6 9.6 0 0 1-.8-1.5L129.4 137zm94-62c.6 3.5.8 7.2.8 11.3 0 11-2 23.5-8.3 39.1L182.5 222a109.3 109.3 0 0 0 41-147zM127.6 0A127.6 127.6 0 0 0 0 127.5C0 197.8 57.2 255 127.5 255S255 197.8 255 127.5 197.8 0 127.5 0zm0 249.2a121.8 121.8 0 0 1 0-243.3c67 0 121.7 54.5 121.7 121.6a122 122 0 0 1-121.7 121.7z" fill="#464342"/>
</svg>
